<svg width="1400" height="194" viewBox="0 0 1400 194" fill="none" xmlns="http://www.w3.org/2000/svg">
<path d="M0 51.7882L46.6667 35.346C93.3333 18.5949 186.667 -13.8264 280 6.47553C373.333 27.0862 466.667 101.192 560 129.985C653.333 159.087 746.667 142.105 840 121.803C933.333 101.192 1026.67 76.4902 1120 80.5814C1213.33 84.9815 1306.67 117.403 1353.33 134.154L1400 150.596V200H1353.33C1306.67 200 1213.33 200 1120 200C1026.67 200 933.333 200 840 200C746.667 200 653.333 200 560 200C466.667 200 373.333 200 280 200C186.667 200 93.3333 200 46.6667 200H0V51.7882Z" fill="#000080"/>
</svg>
