<svg width="671" height="433" viewBox="0 0 671 433" fill="none" xmlns="http://www.w3.org/2000/svg">
<g clip-path="url(#clip0_203_774)">
<path d="M133.692 433C207.529 433 267.385 428.784 267.385 423.582C267.385 418.381 207.529 414.165 133.692 414.165C59.8561 414.165 0 418.381 0 423.582C0 428.784 59.8561 433 133.692 433Z" fill="#E6E6E6"/>
<path d="M102.192 96.0751C125.458 86.8966 154.437 92.712 182.738 96.7481C183.001 91.8604 186.194 85.9117 182.85 82.5018C178.787 78.359 179.161 74.006 181.606 69.6281C187.857 58.4329 178.901 46.5206 169.858 36.6156C167.819 34.3881 165.243 32.6379 162.339 31.5072C159.434 30.3765 156.283 29.8972 153.142 30.1082L136.39 31.218C132.313 31.488 128.423 32.9063 125.24 35.283C122.056 37.6597 119.731 40.8816 118.576 44.5173C114.576 49.563 112.435 54.5946 113.783 59.6001C107.791 63.3976 106.785 67.9816 109.477 73.1492C111.76 76.403 111.736 79.5702 109.373 82.6497C106.271 86.5759 103.894 90.9538 102.342 95.6038L102.192 96.0751Z" fill="#2F2E41"/>
<path d="M655.1 374.321H180.9C176.683 374.321 172.639 372.768 169.657 370.002C166.675 367.236 165 363.485 165 359.574C336.897 341.045 505.564 341.045 671 359.574C671 363.485 669.325 367.236 666.343 370.002C663.361 372.768 659.317 374.321 655.1 374.321Z" fill="#2F2E41"/>
<path d="M671 360.442L165 359.574L223.644 268.054L223.924 267.62V65.9205C223.924 63.4723 224.444 61.0481 225.454 58.7862C226.464 56.5243 227.944 54.4691 229.811 52.738C231.677 51.0068 233.893 49.6336 236.332 48.6968C238.771 47.7601 241.384 47.278 244.024 47.2782H589.17C591.81 47.278 594.424 47.7601 596.862 48.6968C599.301 49.6336 601.517 51.0068 603.383 52.738C605.25 54.4691 606.73 56.5243 607.74 58.7862C608.75 61.0481 609.27 63.4723 609.27 65.9205V269.008L671 360.442Z" fill="#3F3D56"/>
<path d="M243.566 60.2905C241.83 60.2923 240.166 60.9327 238.938 62.0711C237.711 63.2095 237.021 64.753 237.019 66.3629V250.271C237.021 251.881 237.711 253.424 238.938 254.562C240.166 255.701 241.83 256.341 243.566 256.343H592.434C594.17 256.341 595.834 255.701 597.062 254.562C598.289 253.424 598.979 251.881 598.982 250.271V66.3629C598.98 64.753 598.289 63.2096 597.062 62.0712C595.834 60.9328 594.17 60.2924 592.434 60.2905H243.566Z" fill="white"/>
<path d="M245.027 280.633C244.491 280.634 243.966 280.777 243.514 281.045C243.063 281.313 242.703 281.696 242.478 282.147L224.408 318.582C224.212 318.978 224.126 319.414 224.158 319.85C224.191 320.285 224.341 320.706 224.595 321.074C224.848 321.441 225.198 321.743 225.611 321.953C226.024 322.162 226.487 322.272 226.957 322.272H606.958C607.436 322.272 607.907 322.159 608.324 321.943C608.742 321.727 609.093 321.415 609.345 321.038C609.596 320.66 609.739 320.23 609.761 319.787C609.782 319.343 609.681 318.902 609.467 318.506L589.826 282.071C589.594 281.638 589.236 281.274 588.793 281.019C588.349 280.765 587.838 280.631 587.317 280.633H245.027Z" fill="#2F2E41"/>
<path d="M416.597 57.2543C418.922 57.2543 420.806 55.5066 420.806 53.3506C420.806 51.1946 418.922 49.4469 416.597 49.4469C414.273 49.4469 412.388 51.1946 412.388 53.3506C412.388 55.5066 414.273 57.2543 416.597 57.2543Z" fill="white"/>
<path d="M379.246 329.212C378.629 329.213 378.03 329.402 377.54 329.75C377.051 330.098 376.698 330.586 376.537 331.138L372.004 346.753C371.892 347.138 371.877 347.543 371.961 347.935C372.045 348.326 372.224 348.695 372.486 349.012C372.748 349.329 373.085 349.586 373.472 349.763C373.858 349.94 374.283 350.032 374.713 350.032H460.915C461.362 350.032 461.803 349.933 462.2 349.743C462.598 349.552 462.941 349.277 463.2 348.939C463.459 348.601 463.628 348.21 463.691 347.8C463.755 347.389 463.712 346.97 463.565 346.578L457.738 330.963C457.547 330.452 457.189 330.009 456.714 329.695C456.238 329.381 455.67 329.212 455.086 329.212H379.246Z" fill="#2F2E41"/>
<path d="M609.27 264.584V268.054H223.644L223.934 267.621V264.584H609.27Z" fill="#2F2E41"/>
<path d="M598.514 121.448C634.673 121.448 663.985 94.2613 663.985 60.7242C663.985 27.1872 634.673 0 598.514 0C562.355 0 533.042 27.1872 533.042 60.7242C533.042 94.2613 562.355 121.448 598.514 121.448Z" fill="#FF7629"/>
<path d="M625.638 87.1827H571.39C570.398 87.1818 569.447 86.8159 568.746 86.1653C568.044 85.5148 567.65 84.6327 567.649 83.7127V53.3506C567.65 52.4306 568.044 51.5486 568.746 50.898C569.447 50.2475 570.398 49.8816 571.39 49.8806H625.638C626.63 49.8816 627.581 50.2475 628.282 50.898C628.984 51.5486 629.378 52.4306 629.379 53.3506V83.7127C629.378 84.6327 628.984 85.5148 628.282 86.1653C627.581 86.8159 626.63 87.1818 625.638 87.1827ZM571.39 53.3506V83.7127H625.641L625.638 53.3506L571.39 53.3506Z" fill="white"/>
<path d="M615.349 53.3506H581.678V39.4708C581.678 29.4176 588.759 22.121 598.514 22.121C608.269 22.121 615.349 29.4176 615.349 39.4708L615.349 53.3506ZM585.419 49.8806H611.608V39.4708C611.608 31.2986 606.224 25.5909 598.514 25.5909C590.804 25.5909 585.419 31.2987 585.419 39.4708L585.419 49.8806Z" fill="white"/>
<path d="M598.514 71.1341C600.58 71.1341 602.255 69.5806 602.255 67.6642C602.255 65.7478 600.58 64.1942 598.514 64.1942C596.448 64.1942 594.773 65.7478 594.773 67.6642C594.773 69.5806 596.448 71.1341 598.514 71.1341Z" fill="white"/>
<path d="M552.809 193.963H283.191C281.867 193.962 280.598 193.474 279.662 192.605C278.726 191.737 278.2 190.56 278.198 189.332V127.301C278.2 126.073 278.726 124.896 279.662 124.028C280.598 123.16 281.867 122.671 283.191 122.67H552.809C554.133 122.671 555.402 123.16 556.338 124.028C557.274 124.896 557.801 126.073 557.802 127.301V189.332C557.801 190.56 557.274 191.737 556.338 192.605C555.402 193.474 554.133 193.962 552.809 193.963ZM283.191 124.522C282.397 124.523 281.635 124.816 281.074 125.337C280.512 125.858 280.196 126.564 280.195 127.301V189.332C280.196 190.069 280.512 190.775 281.074 191.296C281.635 191.817 282.397 192.11 283.191 192.111H552.809C553.604 192.11 554.365 191.817 554.927 191.296C555.488 190.775 555.804 190.069 555.805 189.332V127.301C555.804 126.564 555.488 125.858 554.927 125.337C554.365 124.816 553.604 124.523 552.809 124.522L283.191 124.522Z" fill="#E6E6E6"/>
<path d="M325.084 174.8C336.317 174.8 345.423 166.355 345.423 155.937C345.423 145.518 336.317 137.073 325.084 137.073C313.851 137.073 304.746 145.518 304.746 155.937C304.746 166.355 313.851 174.8 325.084 174.8Z" fill="#E6E6E6"/>
<path d="M372.056 143.361C371.611 143.36 371.169 143.441 370.758 143.599C370.346 143.756 369.971 143.988 369.656 144.28C369.341 144.572 369.091 144.919 368.92 145.3C368.749 145.682 368.661 146.091 368.661 146.505C368.661 146.918 368.749 147.327 368.92 147.709C369.091 148.091 369.341 148.438 369.656 148.73C369.971 149.022 370.346 149.253 370.758 149.411C371.169 149.568 371.611 149.649 372.056 149.649H531.859C532.758 149.649 533.62 149.317 534.256 148.728C534.892 148.138 535.249 147.339 535.249 146.505C535.249 145.671 534.892 144.871 534.256 144.282C533.62 143.692 532.758 143.361 531.859 143.361H372.056Z" fill="#E6E6E6"/>
<path d="M372.056 162.225C371.157 162.225 370.295 162.556 369.66 163.145C369.024 163.735 368.667 164.535 368.667 165.369C368.667 166.202 369.024 167.002 369.66 167.592C370.295 168.181 371.157 168.513 372.056 168.513H440.82C441.719 168.513 442.581 168.181 443.217 167.592C443.853 167.002 444.21 166.202 444.21 165.369C444.21 164.535 443.853 163.735 443.217 163.145C442.581 162.556 441.719 162.225 440.82 162.225H372.056Z" fill="#E6E6E6"/>
<path d="M222.98 163.496L173.139 188.073L172.508 167.592C188.776 165.074 204.253 160.688 218.564 153.549L223.776 141.604C224.344 140.302 225.268 139.16 226.455 138.29C227.643 137.419 229.054 136.85 230.551 136.638C232.048 136.426 233.578 136.578 234.992 137.081C236.405 137.583 237.654 138.417 238.615 139.502C240.021 141.09 240.724 143.114 240.581 145.164C240.438 147.214 239.461 149.137 237.846 150.544L222.98 163.496Z" fill="#FFB8B8"/>
<path d="M101.198 305.392C100.835 304.155 100.758 302.861 100.972 301.595C101.186 300.328 101.687 299.118 102.442 298.044L113.39 282.46C115.98 278.774 119.953 276.111 124.54 274.989C129.127 273.866 133.999 274.364 138.212 276.386C133.611 283.65 134.252 290.023 139.801 295.561C131.187 299.462 123.225 304.496 116.163 310.508C114.874 311.323 113.393 311.841 111.845 312.018C110.296 312.195 108.724 312.026 107.26 311.526C105.796 311.025 104.482 310.207 103.428 309.14C102.373 308.074 101.609 306.789 101.198 305.392Z" fill="#2F2E41"/>
<path d="M225.25 285.015C223.594 287.576 221.255 289.7 218.459 291.181C215.663 292.662 212.503 293.452 209.283 293.475L136.547 293.986L133.393 277.016L165.568 268.239L138.44 248.929L168.092 216.745L221.95 263.303C225.098 266.024 227.143 269.665 227.744 273.618C228.344 277.57 227.464 281.593 225.25 285.015Z" fill="#2F2E41"/>
<path d="M125.191 401.069H108.156C92.862 303.834 77.2939 206.327 123.298 169.933L177.555 178.125L170.615 220.842L140.332 253.025L125.191 401.069Z" fill="#2F2E41"/>
<path d="M140.165 423.096C138.831 423.433 137.436 423.505 136.07 423.306C134.705 423.108 133.4 422.643 132.242 421.943L113.746 419.637C109.772 417.236 106.901 413.551 105.691 409.297C104.48 405.043 105.017 400.523 107.196 396.616C115.029 400.883 121.9 400.288 127.871 395.141C132.09 403.042 139.041 402.56 145.679 409.216C146.558 410.412 147.117 411.785 147.308 413.221C147.498 414.658 147.317 416.116 146.777 417.474C146.237 418.832 145.356 420.05 144.206 421.028C143.056 422.006 141.67 422.715 140.165 423.096Z" fill="#2F2E41"/>
<path d="M165.568 104.981L134.023 97.9591C139.262 88.0126 139.694 76.945 137.178 65.1904L158.628 64.6052C159.3 79.2225 161.334 92.8787 165.568 104.981Z" fill="#FFB8B8"/>
<path d="M174.238 195.744C151.274 210.257 135.049 196.24 122.667 174.614C124.388 161.381 121.602 145.545 116.442 128.337C114.147 120.748 115.004 112.636 118.843 105.604C122.682 98.5711 129.224 93.1292 137.178 90.3521L164.306 100.885C187.342 118.3 191.876 137.164 183.233 157.06L174.238 195.744Z" fill="#FF7629"/>
<path d="M108.156 119.61L82.9203 131.898L127.714 156.475L133.947 170.734C134.363 171.686 134.566 172.706 134.543 173.733C134.52 174.76 134.271 175.771 133.813 176.706C133.355 177.641 132.696 178.479 131.877 179.17C131.057 179.861 130.095 180.39 129.048 180.725C127.858 181.106 126.59 181.226 125.342 181.076C124.093 180.925 122.899 180.509 121.854 179.86C120.808 179.21 119.938 178.345 119.313 177.332C118.688 176.319 118.324 175.185 118.25 174.02L117.62 164.082L60.6874 146.656C58.7692 146.069 57.0202 145.085 55.5728 143.778C54.1255 142.471 53.0178 140.876 52.3336 139.113C51.3363 136.543 51.2855 133.74 52.1892 131.141C53.093 128.542 54.9002 126.294 57.3281 124.749L103.109 95.6184L108.156 119.61Z" fill="#FFB8B8"/>
<path d="M133.393 121.95C122.868 117.672 113.297 122.32 101.217 126.046L99.324 95.0333C111.319 89.1036 122.756 87.5048 133.393 92.1075L133.393 121.95Z" fill="#FF7629"/>
<path d="M145.983 79.9671C157.106 79.9671 166.123 71.6038 166.123 61.2871C166.123 50.9705 157.106 42.6072 145.983 42.6072C134.86 42.6072 125.843 50.9705 125.843 61.2871C125.843 71.6038 134.86 79.9671 145.983 79.9671Z" fill="#FFB8B8"/>
<path d="M170.077 58.9302C150.136 60.7416 134.942 57.7169 125.231 49.1044V42.1686H168.385L170.077 58.9302Z" fill="#2F2E41"/>
</g>
<defs>
<clipPath id="clip0_203_774">
<rect width="671" height="433" fill="white"/>
</clipPath>
</defs>
</svg>
