<svg width="1420" height="210" viewBox="0 0 1420 210" fill="none" xmlns="http://www.w3.org/2000/svg">
<path d="M0 54.3066L47.3333 37.0648C94.6667 19.4992 189.333 -14.4987 284 6.79042C378.667 28.4034 473.333 106.113 568 136.306C662.667 166.823 757.333 149.015 852 127.726C946.667 106.113 1041.33 80.2097 1136 84.4999C1230.67 89.1139 1325.33 123.112 1372.67 140.677L1420 157.919V209.726H1372.67C1325.33 209.726 1230.67 209.726 1136 209.726C1041.33 209.726 946.667 209.726 852 209.726C757.333 209.726 662.667 209.726 568 209.726C473.333 209.726 378.667 209.726 284 209.726C189.333 209.726 94.6667 209.726 47.3333 209.726H0V54.3066Z" fill="#000080"/>
</svg>
