<?xml version="1.0" standalone="no"?>
<svg xmlns:xlink="http://www.w3.org/1999/xlink" id="wave" style="transform:rotate(0deg); transition: 0.3s" viewBox="0 0 1440 120" version="1.1" xmlns="http://www.w3.org/2000/svg"><defs><linearGradient id="sw-gradient-0" x1="0" x2="0" y1="1" y2="0"><stop stop-color="rgba(0, 0, 128, 1)" offset="0%"/><stop stop-color="rgba(0, 0, 128, 1)" offset="100%"/></linearGradient></defs><path style="transform:translate(0, 0px); opacity:1" fill="url(#sw-gradient-0)" d="M0,60L40,54C80,48,160,36,240,34C320,32,400,40,480,54C560,68,640,88,720,92C800,96,880,84,960,66C1040,48,1120,24,1200,22C1280,20,1360,40,1440,40C1520,40,1600,20,1680,24C1760,28,1840,56,1920,72C2000,88,2080,92,2160,78C2240,64,2320,32,2400,24C2480,16,2560,32,2640,42C2720,52,2800,56,2880,50C2960,44,3040,28,3120,18C3200,8,3280,4,3360,12C3440,20,3520,40,3600,46C3680,52,3760,44,3840,40C3920,36,4000,36,4080,44C4160,52,4240,68,4320,72C4400,76,4480,68,4560,58C4640,48,4720,36,4800,40C4880,44,4960,64,5040,74C5120,84,5200,84,5280,78C5360,72,5440,60,5520,50C5600,40,5680,32,5720,28L5760,24L5760,120L5720,120C5680,120,5600,120,5520,120C5440,120,5360,120,5280,120C5200,120,5120,120,5040,120C4960,120,4880,120,4800,120C4720,120,4640,120,4560,120C4480,120,4400,120,4320,120C4240,120,4160,120,4080,120C4000,120,3920,120,3840,120C3760,120,3680,120,3600,120C3520,120,3440,120,3360,120C3280,120,3200,120,3120,120C3040,120,2960,120,2880,120C2800,120,2720,120,2640,120C2560,120,2480,120,2400,120C2320,120,2240,120,2160,120C2080,120,2000,120,1920,120C1840,120,1760,120,1680,120C1600,120,1520,120,1440,120C1360,120,1280,120,1200,120C1120,120,1040,120,960,120C880,120,800,120,720,120C640,120,560,120,480,120C400,120,320,120,240,120C160,120,80,120,40,120L0,120Z"/></svg>